<?xml version="1.0" encoding="UTF-8"?>
<svg id="Layer_2" data-name="Layer 2" xmlns="http://www.w3.org/2000/svg" viewBox="0 0 949.17 86.7">
  <defs>
    <style>
      .cls-1 {
        fill: #b9ff66;
      }
    </style>
  </defs>
  <g id="Layer_1-2" data-name="Layer 1">
    <g>
      <path d="M138.13,56.38c0,5.22-1.65,9.15-4.94,11.79-3.29,2.64-7.82,3.95-13.59,3.95h-40.91V20.1h37.29c2.6,0,4.99.3,7.18.89,2.19.59,4.14,1.47,5.84,2.63,1.7,1.16,3.03,2.7,3.99,4.62.96,1.92,1.44,4.12,1.44,6.58,0,4.26-1.64,7.47-4.92,9.65,2.62,1.14,4.71,2.75,6.27,4.84,1.56,2.09,2.34,4.44,2.34,7.06ZM124.21,34.76c0-2.27-.82-3.92-2.46-4.93-1.64-1.02-3.77-1.52-6.39-1.52h-26.2v13.28h27.45c2.2,0,4.02-.63,5.45-1.89,1.43-1.26,2.14-2.9,2.14-4.93ZM127.67,56.38c0-2.18-.85-3.82-2.54-4.93-1.69-1.11-3.77-1.67-6.23-1.67h-29.74v14.18h28.83c6.45,0,9.68-2.53,9.68-7.58Z"/>
      <path d="M174.55,31.85l-2.36,8.16c-1.31-.48-2.78-.73-4.41-.73-3.99,0-7.24,1.17-9.75,3.52-2.52,2.35-3.78,5.36-3.78,9.03v20.28h-10.5V31.85h10.5v4.75c3.67-3.77,8.39-5.66,14.16-5.66,1.81,0,3.85.3,6.14.91Z"/>
      <path d="M225.06,72.12h-10.5v-3.41c-3.88,2.88-9.3,4.32-16.24,4.32-1.63,0-3.07-.02-4.35-.07-1.27-.05-2.73-.18-4.37-.38-1.64-.21-3.07-.48-4.29-.83-1.22-.35-2.46-.85-3.72-1.49-1.26-.64-2.29-1.4-3.11-2.27-.81-.87-1.47-1.96-1.99-3.26-.51-1.31-.77-2.78-.77-4.43,0-2.78.81-5.09,2.42-6.93,1.61-1.84,3.77-3.16,6.47-3.95,2.7-.8,5.91-1.2,9.64-1.2h20.3v-1.27c0-1.21-.29-2.28-.87-3.21s-1.31-1.67-2.2-2.21c-.89-.54-1.94-.99-3.15-1.34-1.21-.35-2.36-.59-3.46-.71s-2.24-.18-3.42-.18-2.26.02-3.15.07c-.89.05-1.94.19-3.15.42-1.21.23-2.25.55-3.13.96-.88.41-1.75,1-2.62,1.78-.86.77-1.56,1.7-2.08,2.79l-9.75-2.32c.71-1.86,1.66-3.49,2.87-4.9,1.21-1.4,2.54-2.54,3.99-3.41,1.46-.87,3.13-1.58,5.01-2.12,1.89-.54,3.78-.92,5.68-1.12s4.01-.31,6.31-.31,4.6.14,6.73.44c2.12.29,4.23.81,6.33,1.56,2.1.75,3.91,1.7,5.43,2.85,1.52,1.15,2.75,2.65,3.7,4.5.94,1.85,1.42,3.96,1.42,6.33v25.32ZM214.55,57.32v-2.72h-19.31c-1.05,0-2.04.08-2.97.24-.93.16-1.86.42-2.77.8-.92.38-1.65.94-2.2,1.71-.55.76-.83,1.68-.83,2.74,0,.97.29,1.79.86,2.47.58.68,1.35,1.17,2.32,1.47.97.3,1.9.51,2.79.64.89.12,1.82.18,2.79.18h5.15c1.36,0,2.79-.13,4.29-.38,1.49-.25,3.01-.65,4.56-1.18,1.55-.53,2.82-1.32,3.82-2.36,1-1.04,1.49-2.24,1.49-3.59Z"/>
      <path d="M279.3,72.12h-47.04v-6.67l30.13-25.43h-29.26v-8.16h44.33v6.68l-29.97,25.43h31.82v8.16Z"/>
      <path d="M333.38,55.03h-41.14c.18,1.72.75,3.23,1.69,4.53.94,1.31,2.15,2.33,3.62,3.07,1.47.74,3.03,1.29,4.7,1.65s3.43.54,5.29.54c1.76,0,3.29-.07,4.6-.2,1.31-.13,2.72-.4,4.23-.8,1.51-.4,2.82-1.05,3.93-1.94,1.11-.89,1.99-2.02,2.62-3.37l9.99,2.18c-.79,1.94-1.86,3.63-3.21,5.1s-2.81,2.64-4.38,3.52c-1.57.88-3.38,1.6-5.43,2.14-2.05.54-4.04.91-5.98,1.11-1.94.19-4.06.29-6.37.29-3.91,0-7.45-.42-10.62-1.25s-5.93-2.08-8.28-3.74c-2.35-1.66-4.16-3.81-5.45-6.46-1.29-2.65-1.93-5.69-1.93-9.12,0-2.71.46-5.22,1.38-7.53.92-2.31,2.19-4.29,3.81-5.93s3.54-3.05,5.74-4.23c2.2-1.17,4.59-2.04,7.16-2.61,2.57-.57,5.27-.85,8.1-.85,3.62,0,6.97.45,10.07,1.34,3.09.9,5.83,2.2,8.2,3.92,2.37,1.72,4.24,3.94,5.61,6.66,1.36,2.72,2.04,5.8,2.04,9.23v2.76ZM321.93,47.96c-.5-1.98-1.53-3.65-3.11-4.99-1.58-1.34-3.34-2.29-5.29-2.85-1.95-.56-4.03-.83-6.23-.83s-4.28.28-6.23.83c-1.95.56-3.74,1.5-5.37,2.85-1.63,1.34-2.7,3-3.23,4.99h29.46Z"/>
      <path d="M389.11,72.12h-10.46v-21.77c0-3.97-1.13-6.8-3.4-8.51-2.27-1.7-5.49-2.56-9.66-2.56-4.62,0-8.39,1.16-11.31,3.46-2.92,2.31-4.39,5.46-4.39,9.45v19.92h-10.5V31.85h10.5v5.04c4.25-3.85,9.89-5.77,16.91-5.77,3.51,0,6.6.34,9.26,1.03,2.66.69,4.98,1.77,6.96,3.25,1.98,1.48,3.49,3.46,4.52,5.95,1.04,2.49,1.55,5.47,1.55,8.92v21.84Z"/>
      <path d="M457,56.38c0,5.22-1.65,9.15-4.94,11.79-3.29,2.64-7.82,3.95-13.59,3.95h-40.91V20.1h37.29c2.6,0,4.99.3,7.18.89,2.19.59,4.14,1.47,5.84,2.63,1.7,1.16,3.03,2.7,3.99,4.62.96,1.92,1.44,4.12,1.44,6.58,0,4.26-1.64,7.47-4.92,9.65,2.62,1.14,4.71,2.75,6.27,4.84,1.56,2.09,2.34,4.44,2.34,7.06ZM443.07,34.76c0-2.27-.82-3.92-2.46-4.93-1.64-1.02-3.77-1.52-6.39-1.52h-26.19v13.28h27.45c2.2,0,4.02-.63,5.45-1.89,1.43-1.26,2.14-2.9,2.14-4.93ZM446.54,56.38c0-2.18-.85-3.82-2.54-4.93-1.69-1.11-3.77-1.67-6.23-1.67h-29.74v14.18h28.83c6.45,0,9.68-2.53,9.68-7.58Z"/>
      <path d="M512.34,72.12h-10.46v-4.82c-4.01,3.7-9.65,5.55-16.91,5.55-3.44,0-6.46-.3-9.07-.91-2.61-.6-4.94-1.6-6.98-2.97s-3.61-3.28-4.68-5.71c-1.07-2.43-1.61-5.36-1.61-8.8v-22.6h10.5v22.27c0,1.72.21,3.21.63,4.46.42,1.26.98,2.27,1.69,3.05s1.63,1.39,2.75,1.85c1.13.46,2.31.77,3.56.94,1.25.17,2.71.25,4.39.25,4.61,0,8.39-1.16,11.33-3.46,2.94-2.31,4.41-5.46,4.41-9.45v-19.92h10.46v40.27Z"/>
      <path d="M531.65,72.12h-10.46V17.89h10.46v54.23Z"/>
      <path d="M551.79,72.12h-10.46V17.89h10.46v54.23Z"/>
      <path class="cls-1" d="M614.13,28.3h-42.2v13.28h37.13v8.2h-37.13v22.35h-10.46V20.1h52.67v8.2Z"/>
      <path class="cls-1" d="M683.71,72.12h-14l-19.19-19.92-19.15,19.92h-14.04l26.27-26.52-24.98-25.5h14.04l17.86,19.05,17.9-19.05h14l-24.97,25.5,26.27,26.52Z"/>
    </g>
    <g>
      <path d="M49.54,8.09c-2.8-2.67-5.46-5.21-8.12-7.75l.17-.34c2.07.36,4.17.6,6.2,1.11,4.13,1.02,7.76,2.93,10.51,6.3.65.8.84,1.49.11,2.34-.9,1.05-1.72,2.17-2.66,3.36h10.53c-.94,2.31-2.07,4.24-3.99,5.65-1.03.76-2.1.66-3.22.42-.71-.15-1.41-.32-2.29-.52,1.05,2.27,2.04,4.37,2.99,6.48,2.79,6.21,5.36,12.5,7.19,19.07.3,1.08.32,2.07-.02,3.17-2.68,8.77-5.28,17.56-8.85,26.02-.52,1.22-1.15,1.69-2.49,1.6-2.01-.13-4.03-.03-6.18-.03,0-2.4.15-4.69-.04-6.96-.2-2.38.43-4.11,2.32-5.71,2.54-2.15,4.33-4.97,5.54-8.11.12-.31.22-.63.14-1.1-2.97,2.53-5.94,5.06-9.01,7.68-1.79-2.67-3.55-5.29-5.37-7.99,4.47-4.19,8.88-8.33,13.51-12.68-3.38-.47-6.53-.9-9.82-1.36,1.8-3.38,3.54-6.65,5.37-10.09h-21.48c-1.14-4.1-1.03-3.7-2.17-7.8,7.03-4.25,14.01-8.47,21.13-12.77ZM42.79,20.9c2.57-1.04,4.59-2.42,5.99-4.87h-7.55c.53,1.65,1.01,3.17,1.56,4.87Z"/>
      <path d="M11.73,25.17c-3.25,2.9-7.68,2.21-10.56-1.57,3.09-2.74,9.17-3.31,12.55-1.06,2.13,1.42,2.67,4.32,1.37,6.51-.8,1.35-1.93,2.56-3.01,3.72-1.2,1.29-2.69,2.32-3.89,3.61-2.34,2.52-1.51,5.17,1.87,5.83,1.25.24,2.7.22,3.9-.16,5.75-1.8,11.46-3.75,17.16-5.69.38-.13.78-.55.94-.94.54-1.25.97-2.55,1.46-3.85h6.93c-1.24,3.2-2.45,6.33-3.71,9.57,3,.4,5.85.77,8.83,1.16-.18.39-.3.71-.46,1.01-1.49,2.81-2.95,5.63-4.49,8.4-.42.77-.43,1.32.06,2.07,2.09,3.2,4.1,6.45,6.18,9.65.43.65.38,1.08-.07,1.69-2.78,3.65-6.1,6.72-9.78,9.62-2.31-2.19-4.6-4.36-6.95-6.59,2.1-1.09,4.09-2.13,6.22-3.24-1.81-2.27-3.55-4.46-5.29-6.65l-.22.11c.45,1.78.89,3.57,1.37,5.48-1.56,0-3.03.05-4.5-.03-.36-.02-.75-.38-1.04-.68-2.12-2.2-4.64-3.7-7.57-4.54-.48-.14-.94-.35-1.33.33-2.11,3.71-5.58,5.54-9.5,6.71-.34.1-.69.2-1.23.36.96,3.4,1.91,6.78,2.9,10.27H0v-13.92s.06-.11.13-.13c3.78-1.21,4.98-4.1,5.12-7.74.1-2.71.68-5.27,2.68-7.46-.65-.43-1.24-.81-1.83-1.22-3.72-2.65-4.34-7.79-1.29-11.19,1.6-1.79,3.67-3.14,5.48-4.74.77-.68,1.53-1.44,2.09-2.29.58-.87.39-1.77-.65-2.42Z"/>
      <path d="M15.74,67.36c2.4-1.69,2.93-3.98,2.55-6.78,3.3.9,5.65,2.82,7.51,5.51-.57.65-1.11,1.27-1.74,1.98,2.72,2.61,5.4,5.18,8.32,7.98-2.3,0-4.32-.18-6.3.05-2.45.28-4.06-.56-5.43-2.6-1.43-2.14-3.21-4.05-4.89-6.14Z"/>
      <path d="M35.54,12.1c-1.86-2.41-3.69-4.77-5.68-7.34,4.21.51,8.02,1.29,11.35,4.04-1.95,1.13-3.78,2.19-5.67,3.29Z"/>
    </g>
    <rect x="700.41" y="1.7" width="248.76" height="85" rx="9.95" ry="9.95"/>
    <g>
      <path class="cls-1" d="M766.53,62.04h-8.01l-4.49-9.57h-20.35l-4.49,9.57h-8.01l18.29-37.89h8.83l18.23,37.89ZM751.23,46.5l-7.37-15.59-7.35,15.59h14.72Z"/>
      <path class="cls-1" d="M810.73,43.04c0,3.24-.52,6.09-1.56,8.55-1.04,2.46-2.51,4.44-4.41,5.95-1.9,1.51-4.13,2.63-6.69,3.38-2.55.75-5.41,1.12-8.56,1.12h-19.47V24.15h18.44c2.55,0,4.92.21,7.11.63,2.18.42,4.21,1.11,6.09,2.07,1.88.96,3.48,2.16,4.81,3.61,1.33,1.44,2.37,3.23,3.12,5.36.75,2.13,1.12,4.54,1.12,7.21ZM803.65,43.04c0-8.61-5.06-12.92-15.17-12.92h-11.42v25.97h11.97c9.74,0,14.61-4.35,14.61-13.05Z"/>
      <path class="cls-1" d="M862.9,62.04h-7.03v-30.52c-.41,1.22-1.49,3.97-3.25,8.27l-9.14,22.25h-8.77l-9.09-22.25-3.25-8.27v30.52h-7.03V24.15h10.89l12.92,31.95,12.87-31.95h10.89v37.89Z"/>
      <path class="cls-1" d="M877.22,62.04h-7.32V24.15h7.32v37.89Z"/>
      <path class="cls-1" d="M925.41,62.04h-9.25l-24.89-30.57v30.57h-7.03V24.15h9.14l25,30.6v-30.6h7.03v37.89Z"/>
    </g>
  </g>
</svg>