<?xml version="1.0" encoding="UTF-8"?>
<svg id="Layer_2" data-name="Layer 2" xmlns="http://www.w3.org/2000/svg" viewBox="0 0 117.66 117.66">
  <defs>
    <style>
      .cls-1 {
        fill: #151613;
      }

      .cls-2 {
        fill: #b9ff66;
      }
    </style>
  </defs>
  <g id="Layer_1-2" data-name="Layer 1">
    <rect class="cls-1" width="117.66" height="117.66" rx="32.07" ry="32.07"/>
    <g>
      <path class="cls-2" d="M73.55,22.16c-2.88-2.75-5.62-5.36-8.35-7.98l.18-.35c2.13.37,4.29.62,6.38,1.14,4.24,1.05,7.99,3.01,10.82,6.49.67.83.87,1.53.11,2.41-.93,1.08-1.77,2.23-2.74,3.46h10.84c-.97,2.38-2.13,4.36-4.11,5.82-1.06.78-2.16.67-3.31.43-.73-.16-1.45-.33-2.35-.53,1.08,2.34,2.1,4.49,3.08,6.67,2.87,6.39,5.51,12.86,7.39,19.62.31,1.11.33,2.13-.02,3.26-2.76,9.02-5.43,18.07-9.11,26.78-.53,1.26-1.18,1.74-2.57,1.65-2.06-.14-4.14-.04-6.36-.04,0-2.47.16-4.83-.04-7.16-.21-2.45.44-4.23,2.39-5.88,2.61-2.21,4.46-5.11,5.71-8.34.12-.32.22-.65.14-1.13-3.06,2.6-6.11,5.21-9.28,7.9-1.84-2.74-3.66-5.44-5.52-8.22,4.6-4.31,9.14-8.57,13.9-13.05-3.48-.48-6.71-.93-10.11-1.4,1.85-3.47,3.64-6.84,5.52-10.39h-22.11c-1.17-4.22-1.06-3.81-2.23-8.02,7.23-4.37,14.42-8.71,21.75-13.14ZM66.6,35.34c2.64-1.07,4.72-2.49,6.17-5.01h-7.77c.54,1.7,1.04,3.27,1.6,5.01Z"/>
      <path class="cls-2" d="M34.65,39.74c-3.35,2.98-7.9,2.28-10.87-1.62,3.18-2.82,9.44-3.41,12.91-1.09,2.19,1.46,2.75,4.44,1.41,6.7-.82,1.39-1.98,2.63-3.1,3.83-1.24,1.33-2.77,2.38-4,3.71-2.41,2.6-1.56,5.32,1.92,6,1.29.25,2.77.23,4.02-.16,5.92-1.85,11.79-3.86,17.66-5.86.39-.13.8-.57.97-.96.55-1.29,1-2.62,1.5-3.96h7.13c-1.28,3.3-2.52,6.51-3.82,9.85,3.09.41,6.02.79,9.08,1.2-.18.4-.31.73-.47,1.04-1.53,2.89-3.04,5.79-4.62,8.65-.44.79-.44,1.36.06,2.13,2.15,3.29,4.21,6.64,6.36,9.93.44.67.4,1.11-.08,1.73-2.86,3.75-6.28,6.92-10.06,9.9-2.38-2.25-4.73-4.49-7.15-6.78,2.16-1.13,4.2-2.19,6.4-3.34-1.86-2.34-3.65-4.59-5.44-6.85l-.23.11c.46,1.84.92,3.67,1.41,5.64-1.6,0-3.12.05-4.63-.03-.37-.02-.78-.4-1.07-.7-2.18-2.26-4.78-3.8-7.79-4.67-.5-.14-.97-.36-1.37.34-2.17,3.82-5.74,5.7-9.77,6.91-.35.1-.71.21-1.26.37.99,3.5,1.97,6.97,2.98,10.56h-10.16v-14.32s.06-.12.13-.14c3.89-1.24,5.13-4.22,5.27-7.96.11-2.78.7-5.42,2.75-7.68-.67-.44-1.28-.83-1.88-1.26-3.83-2.73-4.46-8.02-1.32-11.52,1.65-1.84,3.78-3.23,5.64-4.88.79-.7,1.57-1.48,2.15-2.35.59-.9.4-1.82-.67-2.49Z"/>
      <path class="cls-2" d="M38.76,83.14c2.46-1.74,3.02-4.1,2.62-6.98,3.4.93,5.81,2.9,7.73,5.67-.59.67-1.15,1.3-1.79,2.04,2.8,2.68,5.55,5.33,8.56,8.21-2.36,0-4.45-.19-6.49.05-2.53.29-4.18-.57-5.59-2.67-1.47-2.2-3.3-4.17-5.04-6.32Z"/>
      <path class="cls-2" d="M59.15,26.28c-1.91-2.47-3.8-4.91-5.84-7.55,4.33.52,8.26,1.32,11.68,4.16-2.01,1.16-3.89,2.26-5.84,3.39Z"/>
    </g>
  </g>
</svg>