<svg id="visual" viewBox="0 0 900 450" width="900" height="450" xmlns="http://www.w3.org/2000/svg" xmlns:xlink="http://www.w3.org/1999/xlink" version="1.1"><rect x="0" y="0" width="900" height="450" fill="#fff"></rect><path d="M0 275L21.5 279.2C43 283.3 86 291.7 128.8 291.5C171.7 291.3 214.3 282.7 257.2 277.2C300 271.7 343 269.3 385.8 272.2C428.7 275 471.3 283 514.2 283.7C557 284.3 600 277.7 642.8 271.2C685.7 264.7 728.3 258.3 771.2 257.5C814 256.7 857 261.3 878.5 263.7L900 266L900 451L878.5 451C857 451 814 451 771.2 451C728.3 451 685.7 451 642.8 451C600 451 557 451 514.2 451C471.3 451 428.7 451 385.8 451C343 451 300 451 257.2 451C214.3 451 171.7 451 128.8 451C86 451 43 451 21.5 451L0 451Z" fill="#b9ff66"></path><path d="M0 293L21.5 299C43 305 86 317 128.8 316.3C171.7 315.7 214.3 302.3 257.2 296.2C300 290 343 291 385.8 296.8C428.7 302.7 471.3 313.3 514.2 319.3C557 325.3 600 326.7 642.8 321.2C685.7 315.7 728.3 303.3 771.2 297.8C814 292.3 857 293.7 878.5 294.3L900 295L900 451L878.5 451C857 451 814 451 771.2 451C728.3 451 685.7 451 642.8 451C600 451 557 451 514.2 451C471.3 451 428.7 451 385.8 451C343 451 300 451 257.2 451C214.3 451 171.7 451 128.8 451C86 451 43 451 21.5 451L0 451Z" fill="#89d73c"></path><path d="M0 400L21.5 399C43 398 86 396 128.8 390.5C171.7 385 214.3 376 257.2 375.8C300 375.7 343 384.3 385.8 382.5C428.7 380.7 471.3 368.3 514.2 370C557 371.7 600 387.3 642.8 386.3C685.7 385.3 728.3 367.7 771.2 363C814 358.3 857 366.7 878.5 370.8L900 375L900 451L878.5 451C857 451 814 451 771.2 451C728.3 451 685.7 451 642.8 451C600 451 557 451 514.2 451C471.3 451 428.7 451 385.8 451C343 451 300 451 257.2 451C214.3 451 171.7 451 128.8 451C86 451 43 451 21.5 451L0 451Z" fill="#57b100"></path></svg>