<?xml version="1.0" encoding="UTF-8"?>
<svg id="Layer_2" data-name="Layer 2" xmlns="http://www.w3.org/2000/svg" viewBox="0 0 170.04 192.06">
  <defs>
    <style>
      .cls-1 {
        fill: #1d1d1d;
      }
    </style>
  </defs>
  <g id="Layer_1-2" data-name="Layer 1">
    <g>
      <path class="cls-1" d="M124.87,20.74c-7.16-6.84-13.98-13.35-20.79-19.86.08-.3.15-.59.23-.89,5.37.94,10.82,1.57,16.1,2.88,10.55,2.62,19.86,7.49,26.89,16.12,1.67,2.05,2.16,3.8.27,5.99-2.3,2.68-4.41,5.54-6.81,8.59h26.94c-2.4,5.91-5.29,10.84-10.22,14.46-2.64,1.93-5.36,1.68-8.22,1.07-1.81-.39-3.62-.82-5.85-1.32,2.69,5.81,5.23,11.17,7.66,16.58,7.13,15.88,13.71,31.96,18.38,48.77.77,2.77.82,5.29-.04,8.11-6.86,22.42-13.5,44.91-22.64,66.56-1.32,3.13-2.94,4.32-6.38,4.09-5.13-.34-10.3-.09-15.82-.09,0-6.13.39-12-.11-17.79-.52-6.08,1.1-10.5,5.94-14.6,6.49-5.5,11.09-12.71,14.18-20.74.31-.8.55-1.62.36-2.81-7.6,6.47-15.19,12.94-23.06,19.64-4.58-6.82-9.09-13.53-13.72-20.43,11.42-10.72,22.72-21.31,34.56-32.43-8.64-1.2-16.69-2.31-25.13-3.48,4.59-8.64,9.04-17.01,13.72-25.82h-54.86c-2.15-6.57-4.24-12.94-6.39-19.5,18.23-11.02,36.33-21.96,54.8-33.12ZM107.88,53.31c6.42-2.6,11.47-6.05,14.98-12.17h-18.87c1.32,4.12,2.54,7.94,3.89,12.17Z"/>
      <path class="cls-1" d="M29.02,65.18c-8.05,7.17-18.98,5.47-26.13-3.88,7.25-6.43,21.19-8.03,29.72-3.41,6.2,3.35,8.62,9.33,5.41,15.61-1.99,3.88-5.14,7.24-8.15,10.48-2.97,3.19-6.65,5.73-9.61,8.92-5.79,6.24-3.74,12.8,4.61,14.43,3.1.6,6.67.55,9.66-.39,14.23-4.45,28.34-9.28,42.45-14.07.95-.32,1.92-1.37,2.33-2.32,1.33-3.1,2.4-6.3,3.6-9.53h17.14c-3.07,7.92-6.06,15.65-9.17,23.67,7.42.98,14.48,1.91,21.83,2.88-.43.96-.74,1.76-1.14,2.51-3.68,6.94-7.3,13.91-11.11,20.78-1.05,1.89-1.06,3.27.14,5.11,5.17,7.91,10.13,15.96,15.29,23.88,1.05,1.62.95,2.68-.19,4.17-6.87,9.02-15.09,16.62-24.18,23.79-5.71-5.42-11.37-10.78-17.18-16.29,5.19-2.71,10.1-5.27,15.39-8.02-4.45-5.59-8.74-10.99-13.03-16.39-.2.07-.4.15-.61.22,1.1,4.41,2.21,8.81,3.39,13.54-3.86,0-7.5.11-11.14-.08-.89-.05-1.87-.95-2.57-1.68-5.24-5.43-11.49-9.14-18.72-11.22-1.2-.34-2.33-.85-3.28.81-5.22,9.17-13.79,13.71-23.49,16.6-.85.25-1.7.5-3.03.89,2.38,8.42,4.73,16.76,7.17,25.39H0v-34.42c.06-.06.16-.28.31-.33,9.36-2.98,12.32-10.15,12.67-19.13.25-6.69,1.67-13.03,6.62-18.45-1.39-.92-2.69-1.75-3.95-2.62-10.7-7.41-12.31-18.76-3.51-28.36,3.93-4.28,8.92-7.58,13.31-11.46,1.91-1.69,3.78-3.55,5.18-5.66,1.42-2.15.96-4.37-1.6-5.98Z"/>
      <path class="cls-1" d="M40.25,170.09c5.99-4.22,7.33-9.96,6.36-16.96,8.26,2.26,14.12,7.05,18.77,13.78-1.43,1.62-2.79,3.17-4.36,4.95,6.79,6.52,13.5,12.95,20.79,19.95-5.74,0-10.81-.45-15.76.11-6.14.7-10.16-1.39-13.57-6.5-3.58-5.35-8.01-10.12-12.24-15.35Z"/>
      <path class="cls-1" d="M89.77,31.92c-4.65-6.01-9.23-11.93-14.19-18.35,10.52,1.26,20.06,3.22,28.38,10.11-4.87,2.83-9.44,5.48-14.19,8.24Z"/>
    </g>
  </g>
</svg>