<?xml version="1.0" encoding="UTF-8"?>
<svg id="Layer_2" data-name="Layer 2" xmlns="http://www.w3.org/2000/svg" viewBox="0 0 596.65 67.29">
  <defs>
    <style>
      .cls-1 {
        fill: #b9ff66;
      }
    </style>
  </defs>
  <g id="Layer_1-2" data-name="Layer 1">
    <g>
      <path d="M121.76,52.4c0,4.55-1.43,7.97-4.3,10.26-2.86,2.29-6.81,3.44-11.83,3.44h-35.61V20.83h32.46c2.26,0,4.34.26,6.25.77,1.91.52,3.6,1.28,5.08,2.29,1.48,1.01,2.64,2.35,3.48,4.03.83,1.67,1.25,3.58,1.25,5.73,0,3.71-1.43,6.5-4.28,8.4,2.28.99,4.1,2.39,5.46,4.21,1.36,1.82,2.04,3.87,2.04,6.14ZM109.64,33.58c0-1.98-.71-3.41-2.14-4.29-1.43-.88-3.28-1.33-5.56-1.33h-22.8v11.56h23.9c1.92,0,3.5-.55,4.74-1.64,1.24-1.09,1.87-2.53,1.87-4.29ZM112.65,52.4c0-1.89-.74-3.33-2.21-4.29-1.47-.97-3.28-1.45-5.43-1.45h-25.88v12.35h25.1c5.61,0,8.42-2.2,8.42-6.6Z"/>
      <path d="M153.46,31.06l-2.05,7.11c-1.14-.42-2.42-.63-3.83-.63-3.47,0-6.3,1.02-8.49,3.06-2.19,2.04-3.29,4.66-3.29,7.86v17.65h-9.14V31.06h9.14v4.14c3.2-3.28,7.3-4.93,12.33-4.93,1.57,0,3.35.26,5.34.79Z"/>
      <path d="M197.42,66.11h-9.14v-2.97c-3.38,2.5-8.09,3.76-14.14,3.76-1.42,0-2.68-.02-3.78-.06-1.11-.04-2.37-.15-3.8-.33-1.43-.18-2.67-.42-3.73-.73-1.06-.3-2.14-.74-3.24-1.29-1.1-.56-2-1.22-2.7-1.97-.71-.76-1.28-1.71-1.73-2.84-.44-1.14-.67-2.42-.67-3.85,0-2.42.7-4.43,2.11-6.03,1.4-1.6,3.28-2.75,5.63-3.44,2.35-.69,5.15-1.04,8.39-1.04h17.67v-1.11c0-1.05-.25-1.98-.75-2.79s-1.14-1.45-1.92-1.93c-.78-.47-1.69-.86-2.74-1.17-1.05-.3-2.05-.51-3.01-.62s-1.95-.16-2.98-.16-1.96.02-2.74.06c-.78.04-1.69.16-2.74.36-1.05.2-1.96.48-2.72.84-.76.36-1.52.87-2.28,1.55-.75.67-1.36,1.48-1.81,2.43l-8.49-2.02c.62-1.62,1.45-3.04,2.5-4.26,1.05-1.22,2.21-2.21,3.48-2.97,1.27-.76,2.72-1.37,4.37-1.85,1.64-.47,3.29-.8,4.95-.98s3.49-.27,5.5-.27,4.01.13,5.85.38c1.85.25,3.69.71,5.51,1.36,1.83.65,3.4,1.48,4.72,2.48,1.32,1,2.4,2.31,3.22,3.92.82,1.61,1.23,3.45,1.23,5.51v22.04ZM188.28,53.22v-2.37h-16.81c-.91,0-1.77.07-2.58.21-.81.14-1.62.37-2.41.69-.8.33-1.44.82-1.92,1.48-.48.66-.72,1.46-.72,2.38,0,.84.25,1.56.75,2.15.5.59,1.18,1.02,2.02,1.28.84.26,1.65.45,2.43.55.78.11,1.59.16,2.43.16h4.48c1.19,0,2.43-.11,3.73-.33,1.3-.22,2.62-.56,3.97-1.03,1.35-.46,2.45-1.15,3.32-2.05.87-.91,1.3-1.95,1.3-3.13Z"/>
      <path d="M244.63,66.11h-40.95v-5.81l26.23-22.13h-25.47v-7.11h38.58v5.81l-26.09,22.13h27.7v7.1Z"/>
      <path d="M291.71,51.23h-35.81c.16,1.5.65,2.81,1.47,3.95.82,1.14,1.87,2.03,3.15,2.67,1.28.64,2.64,1.12,4.09,1.44s2.98.47,4.61.47c1.53,0,2.86-.06,4-.17,1.14-.12,2.37-.35,3.68-.69,1.31-.35,2.45-.91,3.42-1.69.97-.78,1.73-1.76,2.28-2.94l8.7,1.89c-.69,1.68-1.62,3.16-2.79,4.44s-2.45,2.29-3.82,3.06c-1.37.77-2.95,1.39-4.72,1.86-1.78.47-3.52.79-5.2.96-1.69.17-3.54.25-5.55.25-3.4,0-6.48-.36-9.24-1.09s-5.16-1.81-7.21-3.25c-2.04-1.44-3.62-3.32-4.74-5.62-1.12-2.3-1.68-4.95-1.68-7.94,0-2.36.4-4.54,1.2-6.55.8-2.01,1.91-3.73,3.32-5.16s3.08-2.66,5-3.68c1.92-1.02,3.99-1.78,6.23-2.27,2.24-.5,4.59-.74,7.05-.74,3.15,0,6.07.39,8.76,1.17,2.69.78,5.07,1.92,7.14,3.41,2.06,1.5,3.69,3.43,4.88,5.79,1.19,2.37,1.78,5.05,1.78,8.04v2.4ZM281.75,45.08c-.43-1.73-1.33-3.17-2.7-4.34-1.37-1.17-2.91-1.99-4.61-2.48-1.7-.48-3.51-.73-5.43-.73s-3.73.24-5.43.73c-1.7.48-3.26,1.31-4.67,2.48-1.42,1.17-2.35,2.62-2.81,4.34h25.64Z"/>
      <path d="M340.22,66.11h-9.11v-18.95c0-3.45-.99-5.92-2.96-7.41-1.97-1.48-4.78-2.23-8.4-2.23-4.02,0-7.3,1.01-9.84,3.02-2.54,2.01-3.82,4.75-3.82,8.23v17.33h-9.14V31.06h9.14v4.39c3.7-3.35,8.61-5.02,14.72-5.02,3.06,0,5.75.3,8.06.9,2.32.6,4.34,1.54,6.06,2.83,1.72,1.28,3.04,3.01,3.94,5.18.9,2.17,1.35,4.76,1.35,7.77v19.01Z"/>
      <path d="M399.31,52.4c0,4.55-1.43,7.97-4.3,10.26-2.86,2.29-6.81,3.44-11.83,3.44h-35.61V20.83h32.46c2.26,0,4.34.26,6.25.77,1.91.52,3.6,1.28,5.08,2.29,1.48,1.01,2.64,2.35,3.47,4.03.83,1.67,1.25,3.58,1.25,5.73,0,3.71-1.43,6.5-4.28,8.4,2.28.99,4.1,2.39,5.46,4.21,1.36,1.82,2.04,3.87,2.04,6.14ZM387.19,33.58c0-1.98-.71-3.41-2.14-4.29-1.43-.88-3.28-1.33-5.56-1.33h-22.8v11.56h23.9c1.92,0,3.5-.55,4.74-1.64,1.24-1.09,1.87-2.53,1.87-4.29ZM390.21,52.4c0-1.89-.74-3.33-2.21-4.29-1.47-.97-3.28-1.45-5.43-1.45h-25.88v12.35h25.09c5.62,0,8.42-2.2,8.42-6.6Z"/>
      <path d="M447.48,66.11h-9.11v-4.2c-3.49,3.22-8.4,4.83-14.72,4.83-2.99,0-5.62-.26-7.89-.79-2.27-.53-4.3-1.39-6.08-2.59s-3.14-2.86-4.07-4.97c-.94-2.12-1.4-4.67-1.4-7.66v-19.67h9.14v19.39c0,1.5.18,2.79.55,3.88.37,1.1.86,1.98,1.47,2.65s1.42,1.21,2.4,1.61c.98.4,2.01.67,3.1.82,1.08.15,2.36.22,3.82.22,4.02,0,7.3-1.01,9.86-3.02,2.56-2.01,3.83-4.75,3.83-8.23v-17.34h9.11v35.05Z"/>
      <path d="M464.29,66.11h-9.11V18.9h9.11v47.21Z"/>
      <path d="M481.82,66.11h-9.11V18.9h9.11v47.21Z"/>
      <path class="cls-1" d="M536.09,27.96h-36.74v11.56h32.32v7.14h-32.32v19.45h-9.11V20.83h45.84v7.14Z"/>
      <path class="cls-1" d="M596.65,66.11h-12.19l-16.71-17.33-16.67,17.33h-12.22l22.87-23.08-21.74-22.2h12.22l15.54,16.58,15.58-16.58h12.19l-21.74,22.2,22.87,23.08Z"/>
    </g>
    <g>
      <path d="M43.7,7.14c-2.47-2.36-4.81-4.6-7.16-6.84l.15-.3c1.83.32,3.68.53,5.47.98,3.64.9,6.85,2.58,9.27,5.56.58.71.74,1.31.09,2.07-.79.93-1.52,1.91-2.35,2.96h9.29c-.83,2.04-1.82,3.74-3.52,4.99-.91.67-1.85.58-2.84.37-.63-.13-1.25-.28-2.02-.46.93,2,1.8,3.85,2.64,5.72,2.46,5.48,4.73,11.02,6.34,16.82.27.95.28,1.83-.02,2.8-2.37,7.73-4.66,15.49-7.81,22.95-.46,1.08-1.02,1.49-2.2,1.41-1.77-.12-3.55-.03-5.45-.03,0-2.11.13-4.14-.04-6.14-.18-2.1.38-3.62,2.05-5.04,2.24-1.9,3.82-4.38,4.89-7.15.11-.28.19-.56.12-.97-2.62,2.23-5.24,4.46-7.95,6.77-1.58-2.35-3.13-4.66-4.73-7.05,3.94-3.7,7.83-7.35,11.92-11.18-2.98-.41-5.76-.8-8.67-1.2,1.58-2.98,3.12-5.87,4.73-8.9h-18.95c-1.01-3.61-.91-3.26-1.92-6.88,6.2-3.75,12.36-7.47,18.64-11.27ZM37.74,18.43c2.27-.92,4.05-2.13,5.29-4.29h-6.66c.46,1.45.9,2.8,1.37,4.29Z"/>
      <path d="M10.35,22.21c-2.87,2.56-6.77,1.95-9.32-1.38,2.72-2.41,8.09-2.92,11.07-.94,1.88,1.25,2.35,3.81,1.21,5.75-.71,1.19-1.7,2.25-2.65,3.28-1.06,1.14-2.37,2.04-3.43,3.18-2.07,2.23-1.34,4.56,1.65,5.15,1.1.22,2.38.2,3.44-.14,5.07-1.59,10.11-3.31,15.14-5.02.34-.11.68-.49.83-.83.47-1.1.86-2.25,1.28-3.4h6.11c-1.09,2.83-2.16,5.58-3.27,8.44,2.65.35,5.16.68,7.79,1.03-.15.34-.27.63-.41.89-1.31,2.48-2.6,4.96-3.96,7.41-.37.68-.38,1.17.05,1.82,1.84,2.82,3.61,5.69,5.45,8.51.38.58.34.95-.07,1.49-2.45,3.22-5.38,5.93-8.62,8.49-2.04-1.93-4.06-3.84-6.13-5.81,1.85-.96,3.6-1.88,5.49-2.86-1.59-2-3.13-3.94-4.67-5.87l-.2.1c.39,1.57.79,3.15,1.21,4.83-1.38,0-2.68.04-3.97-.03-.32-.02-.67-.34-.92-.6-1.87-1.94-4.1-3.26-6.68-4-.43-.12-.83-.3-1.17.29-1.86,3.27-4.92,4.89-8.38,5.92-.3.09-.61.18-1.08.32.85,3,1.69,5.98,2.56,9.06H0v-12.27s.06-.1.11-.12c3.34-1.06,4.39-3.62,4.52-6.82.09-2.39.6-4.65,2.36-6.58-.57-.38-1.1-.71-1.61-1.08-3.28-2.34-3.83-6.88-1.13-9.87,1.41-1.58,3.24-2.77,4.83-4.19.68-.6,1.35-1.27,1.85-2.02.51-.77.34-1.56-.57-2.13Z"/>
      <path d="M13.88,59.42c2.11-1.49,2.59-3.51,2.24-5.98,2.91.8,4.98,2.49,6.62,4.86-.5.57-.98,1.12-1.54,1.75,2.4,2.3,4.76,4.57,7.33,7.04-2.03,0-3.81-.16-5.56.04-2.16.25-3.59-.49-4.79-2.29-1.26-1.89-2.83-3.57-4.32-5.41Z"/>
      <path d="M31.35,10.67c-1.64-2.12-3.26-4.21-5.01-6.47,3.71.45,7.08,1.14,10.01,3.57-1.72,1-3.33,1.93-5,2.91Z"/>
    </g>
  </g>
</svg>