<?xml version="1.0" encoding="UTF-8"?>
<svg id="Layer_2" data-name="Layer 2" xmlns="http://www.w3.org/2000/svg" viewBox="0 0 598.76 76.39">
  <defs>
    <style>
      .cls-1 {
        fill: #141313;
      }
    </style>
  </defs>
  <g id="Layer_1-2" data-name="Layer 1">
    <g>
      <g>
        <path class="cls-1" d="M49.11,8.16c-2.82-2.69-5.5-5.25-8.18-7.81.03-.12.06-.23.09-.35,2.11.37,4.25.62,6.33,1.13,4.15,1.03,7.81,2.94,10.57,6.34.66.81.85,1.49.11,2.36-.91,1.05-1.73,2.18-2.68,3.38h10.59c-.94,2.32-2.08,4.26-4.02,5.69-1.04.76-2.11.66-3.23.42-.71-.15-1.42-.32-2.3-.52,1.06,2.28,2.06,4.39,3.01,6.52,2.8,6.24,5.39,12.57,7.23,19.18.3,1.09.32,2.08-.02,3.19-2.7,8.82-5.31,17.66-8.9,26.17-.52,1.23-1.16,1.7-2.51,1.61-2.02-.13-4.05-.03-6.22-.03,0-2.41.15-4.72-.04-7-.2-2.39.43-4.13,2.33-5.74,2.55-2.16,4.36-5,5.58-8.16.12-.31.22-.64.14-1.1-2.99,2.54-5.97,5.09-9.07,7.72-1.8-2.68-3.57-5.32-5.4-8.03,4.49-4.21,8.93-8.38,13.59-12.75-3.4-.47-6.56-.91-9.88-1.37,1.81-3.4,3.56-6.69,5.4-10.15h-21.57c-.85-2.58-1.67-5.09-2.51-7.67,7.17-4.33,14.29-8.63,21.55-13.02ZM42.43,20.97c2.53-1.02,4.51-2.38,5.89-4.79h-7.42c.52,1.62,1,3.12,1.53,4.79Z"/>
        <path class="cls-1" d="M11.41,25.63c-3.16,2.82-7.46,2.15-10.28-1.53,2.85-2.53,8.33-3.16,11.69-1.34,2.44,1.32,3.39,3.67,2.13,6.14-.78,1.52-2.02,2.85-3.21,4.12-1.17,1.26-2.61,2.25-3.78,3.51-2.28,2.46-1.47,5.03,1.81,5.67,1.22.24,2.62.22,3.8-.15,5.59-1.75,11.14-3.65,16.69-5.53.37-.13.75-.54.91-.91.52-1.22.95-2.48,1.42-3.75h6.74c-1.21,3.12-2.38,6.15-3.61,9.31,2.92.38,5.69.75,8.59,1.13-.17.38-.29.69-.45.99-1.45,2.73-2.87,5.47-4.37,8.17-.41.75-.42,1.29.06,2.01,2.03,3.11,3.98,6.28,6.01,9.39.41.64.37,1.05-.07,1.64-2.7,3.55-5.94,6.54-9.51,9.36-2.25-2.13-4.47-4.24-6.76-6.4,2.04-1.06,3.97-2.07,6.05-3.15-1.75-2.2-3.44-4.32-5.13-6.44-.08.03-.16.06-.24.09.43,1.73.87,3.47,1.33,5.33-1.52,0-2.95.04-4.38-.03-.35-.02-.73-.37-1.01-.66-2.06-2.14-4.52-3.6-7.36-4.41-.47-.13-.92-.34-1.29.32-2.05,3.61-5.42,5.39-9.24,6.53-.33.1-.67.2-1.19.35.93,3.31,1.86,6.59,2.82,9.99H0v-13.53s.06-.11.12-.13c3.68-1.17,4.85-3.99,4.98-7.52.1-2.63.66-5.13,2.6-7.26-.55-.36-1.06-.69-1.55-1.03-4.21-2.91-4.84-7.38-1.38-11.15,1.55-1.68,3.51-2.98,5.23-4.51.75-.66,1.49-1.4,2.04-2.23.56-.85.38-1.72-.63-2.35Z"/>
        <path class="cls-1" d="M15.83,66.89c2.36-1.66,2.88-3.92,2.5-6.67,3.25.89,5.55,2.77,7.38,5.42-.56.64-1.1,1.25-1.71,1.95,2.67,2.56,5.31,5.09,8.18,7.85-2.26,0-4.25-.18-6.2.04-2.41.28-4-.55-5.34-2.55-1.41-2.1-3.15-3.98-4.81-6.04Z"/>
        <path class="cls-1" d="M35.3,12.55c-1.83-2.36-3.63-4.69-5.58-7.21,4.14.5,7.89,1.27,11.16,3.97-1.92,1.11-3.71,2.16-5.58,3.24Z"/>
      </g>
      <g>
        <path class="cls-1" d="M131.25,60.79c-.59,3.43-1.77,6.26-3.53,8.5-1.76,2.24-3.9,3.84-6.43,4.8-2.53.96-5.46,1.44-8.8,1.44h-35.66l8.64-49.17h32.23c2.26,0,4.31.29,6.16.86,1.84.57,3.42,1.42,4.73,2.54,1.31,1.12,2.25,2.6,2.79,4.42.55,1.83.62,3.91.21,6.24-.75,4.14-2.95,7.22-6.58,9.26,2.19.87,3.9,2.33,5.11,4.37,1.21,2.05,1.59,4.29,1.13,6.74ZM122.13,60.65c.37-2.06-.03-3.61-1.2-4.66-1.17-1.05-2.8-1.58-4.9-1.58h-26.33l-2.4,13.41h25.07c5.62,0,8.88-2.39,9.77-7.17ZM122.68,40.21c.21-1.12.19-2.09-.05-2.9-.24-.81-.67-1.45-1.3-1.9-.63-.46-1.35-.79-2.18-.99-.82-.21-1.77-.31-2.85-.31h-23.04l-2.23,12.55h24.07c2.15,0,3.86-.57,5.13-1.71,1.27-1.14,2.09-2.72,2.45-4.73Z"/>
        <path class="cls-1" d="M167.05,37.47l-3.36,7.72c-1.07-.46-2.34-.69-3.81-.69-3.48,0-6.5,1.1-9.07,3.31s-4.15,5.06-4.75,8.56l-3.36,19.17h-9.16l6.69-38.06h9.12l-.75,4.49c1.85-1.76,3.84-3.09,5.97-3.99,2.13-.9,4.56-1.35,7.3-1.35,1.53,0,3.26.29,5.18.86Z"/>
        <path class="cls-1" d="M204.43,75.53h-9.16l.58-3.22c-3.84,2.72-8.84,4.08-14.98,4.08-2.06,0-3.83-.06-5.33-.17-1.5-.11-3.16-.4-4.99-.86-1.83-.46-3.28-1.1-4.35-1.92-1.07-.82-1.9-2.01-2.47-3.55-.57-1.54-.67-3.39-.31-5.54.69-3.89,2.63-6.76,5.83-8.62,3.2-1.86,7.29-2.79,12.28-2.79h17.69l.21-1.2c.25-1.42.1-2.63-.46-3.65-.56-1.02-1.41-1.78-2.54-2.3-1.13-.51-2.29-.88-3.46-1.1-1.18-.22-2.42-.33-3.72-.33s-2.5.06-3.51.17c-1.02.11-2.16.35-3.43.72-1.27.37-2.44.96-3.52,1.78-1.07.82-2.01,1.87-2.81,3.15l-8.06-2.19c1.14-2.19,2.53-4.05,4.17-5.56,1.63-1.51,3.46-2.66,5.49-3.46,2.02-.8,4.07-1.37,6.16-1.7,2.08-.33,4.39-.5,6.93-.5,2.06,0,3.99.14,5.79.41,1.81.27,3.56.77,5.26,1.47,1.7.71,3.12,1.61,4.25,2.69,1.13,1.09,1.95,2.5,2.47,4.25.51,1.75.58,3.74.19,5.98l-4.18,23.93ZM197.74,61.54l.41-2.57h-16.84c-.91,0-1.79.08-2.62.22-.83.15-1.69.4-2.55.75-.87.35-1.61.89-2.21,1.61-.61.72-1,1.58-1.18,2.59-.16.92-.04,1.69.36,2.33.4.64.99,1.1,1.78,1.39.79.29,1.57.49,2.33.6.77.11,1.57.17,2.42.17h4.49c1.19,0,2.46-.12,3.81-.36,1.35-.24,2.74-.61,4.17-1.12,1.43-.5,2.67-1.25,3.72-2.23,1.05-.98,1.69-2.11,1.92-3.39Z"/>
        <path class="cls-1" d="M251.71,75.53h-41.01l1.06-6.31,30.55-24.04h-25.51l1.34-7.72h38.61l-1.1,6.31-30.35,24.04h27.74l-1.34,7.72Z"/>
        <path class="cls-1" d="M301.67,59.38h-35.87c-.09,1.3.05,2.49.43,3.55.38,1.06.93,1.94,1.65,2.64s1.59,1.28,2.62,1.75c1.03.47,2.11.81,3.26,1.01,1.14.21,2.35.31,3.63.31,1.53,0,2.89-.06,4.06-.19,1.18-.12,2.46-.38,3.86-.75,1.39-.38,2.66-.99,3.81-1.83,1.14-.85,2.1-1.91,2.88-3.19l8.33,2.06c-1.03,1.83-2.25,3.44-3.65,4.82-1.41,1.38-2.86,2.49-4.37,3.33s-3.19,1.51-5.04,2.02c-1.85.51-3.63.86-5.35,1.05s-3.58.27-5.59.27c-3.38,0-6.41-.42-9.07-1.27-2.66-.85-4.89-2.08-6.67-3.7s-3.02-3.71-3.72-6.26-.75-5.45-.15-8.69c.57-3.18,1.69-6.03,3.34-8.56,1.66-2.53,3.67-4.57,6.04-6.14,2.37-1.57,4.97-2.76,7.82-3.58s5.82-1.23,8.93-1.23c2.51,0,4.85.27,7.01.81,2.16.54,4.1,1.34,5.83,2.4,1.73,1.06,3.15,2.4,4.27,3.99,1.12,1.6,1.89,3.46,2.3,5.59.41,2.13.39,4.53-.07,7.2l-.51,2.61ZM292.9,52.69c-.14-2.74-1.29-4.79-3.46-6.15-2.17-1.36-4.77-2.04-7.78-2.04s-5.88.68-8.59,2.04c-2.71,1.36-4.66,3.41-5.85,6.15h25.68Z"/>
        <path class="cls-1" d="M347.45,75.53h-9.12l3.57-20.57c.66-3.73.15-6.4-1.54-8.02-1.69-1.62-4.35-2.43-7.99-2.43-4.02,0-7.5,1.09-10.42,3.27-2.93,2.18-4.72,5.16-5.38,8.93l-3.29,18.83h-9.16l6.69-38.06h9.12l-.82,4.77c4.34-3.63,9.58-5.45,15.71-5.45,2.42,0,4.58.2,6.46.6s3.57,1.05,5.06,1.94c1.49.89,2.63,2.04,3.45,3.45.81,1.41,1.35,3.12,1.63,5.13.27,2.01.15,4.34-.38,7l-3.57,20.64Z"/>
        <path class="cls-1" d="M409.24,60.79c-.59,3.43-1.77,6.26-3.53,8.5-1.76,2.24-3.9,3.84-6.43,4.8-2.53.96-5.46,1.44-8.79,1.44h-35.66l8.64-49.17h32.23c2.26,0,4.31.29,6.16.86,1.84.57,3.42,1.42,4.73,2.54,1.31,1.12,2.25,2.6,2.79,4.42.55,1.83.62,3.91.21,6.24-.75,4.14-2.95,7.22-6.58,9.26,2.19.87,3.9,2.33,5.11,4.37,1.21,2.05,1.59,4.29,1.13,6.74ZM400.12,60.65c.37-2.06-.03-3.61-1.2-4.66-1.17-1.05-2.8-1.58-4.9-1.58h-26.34l-2.4,13.41h25.07c5.62,0,8.88-2.39,9.77-7.17ZM400.67,40.21c.21-1.12.19-2.09-.05-2.9-.24-.81-.67-1.45-1.3-1.9-.63-.46-1.35-.79-2.18-.99-.82-.21-1.77-.31-2.85-.31h-23.04l-2.23,12.55h24.07c2.15,0,3.86-.57,5.13-1.71s2.09-2.72,2.45-4.73Z"/>
        <path class="cls-1" d="M454.88,75.53h-9.12l.75-4.56c-4.16,3.5-9.37,5.25-15.64,5.25-1.97,0-3.75-.12-5.35-.36-1.6-.24-3.11-.63-4.53-1.18-1.42-.55-2.59-1.26-3.53-2.14s-1.73-1.97-2.37-3.26c-.64-1.29-.99-2.8-1.06-4.53-.07-1.73.06-3.7.38-5.92l3.81-21.36h9.12l-3.7,21.05c-.25,1.19-.35,2.25-.29,3.17.06.93.17,1.74.34,2.43.17.7.49,1.3.96,1.8.47.5.97.92,1.49,1.25.53.33,1.18.59,1.95.79s1.57.33,2.38.41c.81.08,1.73.12,2.76.12,4.02,0,7.5-1.09,10.44-3.28,2.94-2.18,4.75-5.16,5.44-8.93l3.29-18.83h9.16l-6.69,38.06Z"/>
        <path class="cls-1" d="M471.72,75.53h-9.12l8.98-51.26h9.12l-8.98,51.26Z"/>
        <path class="cls-1" d="M489.28,75.53h-9.12l8.98-51.26h9.12l-8.98,51.26Z"/>
        <path class="cls-1" d="M550.93,34.11h-36.79l-2.23,12.55h32.37l-1.34,7.75h-32.37l-3.74,21.12h-9.12l8.64-49.17h45.91l-1.34,7.75Z"/>
        <path class="cls-1" d="M592.35,75.53h-11.45l-9.88-13.48-14.75,13.48h-11.97l21.71-19.37-14.02-18.69h11.35l9.36,12.79,14.03-12.79h12.04l-21.02,18.69,14.61,19.37Z"/>
      </g>
    </g>
  </g>
</svg>