<?xml version="1.0" encoding="UTF-8"?>
<svg id="Layer_2" data-name="Layer 2" xmlns="http://www.w3.org/2000/svg" viewBox="0 0 617.12 78.5">
  <defs>
    <style>
      .cls-1 {
        fill: #b9ff66;
      }
    </style>
  </defs>
  <g id="Layer_1-2" data-name="Layer 1">
    <g>
      <g>
        <path class="cls-1" d="M50.97,8.33c-2.88-2.75-5.62-5.36-8.35-7.98l.18-.35c2.13.37,4.29.62,6.38,1.14,4.24,1.05,7.99,3.01,10.82,6.49.67.83.87,1.53.11,2.41-.93,1.08-1.77,2.23-2.74,3.46h10.84c-.97,2.38-2.13,4.36-4.11,5.82-1.06.78-2.16.67-3.31.43-.73-.16-1.45-.33-2.35-.53,1.08,2.34,2.1,4.49,3.08,6.67,2.87,6.39,5.51,12.86,7.39,19.62.31,1.11.33,2.13-.02,3.26-2.76,9.02-5.43,18.07-9.11,26.78-.53,1.26-1.18,1.74-2.57,1.65-2.06-.14-4.14-.04-6.36-.04,0-2.47.16-4.83-.04-7.16-.21-2.45.44-4.23,2.39-5.88,2.61-2.21,4.46-5.11,5.71-8.34.12-.32.22-.65.14-1.13-3.06,2.6-6.11,5.21-9.28,7.9-1.84-2.74-3.66-5.44-5.52-8.22,4.6-4.31,9.14-8.57,13.9-13.05-3.48-.48-6.71-.93-10.11-1.4,1.85-3.47,3.64-6.84,5.52-10.39h-22.11c-1.17-4.22-1.06-3.81-2.23-8.02,7.23-4.37,14.42-8.71,21.75-13.14ZM44.03,21.5c2.64-1.07,4.72-2.49,6.17-5.01h-7.77c.54,1.7,1.04,3.27,1.6,5.01Z"/>
        <path class="cls-1" d="M12.07,25.9c-3.35,2.98-7.9,2.28-10.87-1.62,3.18-2.82,9.44-3.41,12.91-1.09,2.19,1.46,2.75,4.44,1.41,6.7-.82,1.39-1.98,2.63-3.1,3.83-1.24,1.33-2.77,2.38-4,3.71-2.41,2.6-1.56,5.32,1.92,6,1.29.25,2.77.23,4.02-.16,5.92-1.85,11.79-3.86,17.66-5.86.39-.13.8-.57.97-.96.55-1.29,1-2.62,1.5-3.96h7.13c-1.28,3.3-2.52,6.51-3.82,9.85,3.09.41,6.02.79,9.08,1.2-.18.4-.31.73-.47,1.04-1.53,2.89-3.04,5.79-4.62,8.65-.44.79-.44,1.36.06,2.13,2.15,3.29,4.21,6.64,6.36,9.93.44.67.4,1.11-.08,1.73-2.86,3.75-6.28,6.92-10.06,9.9-2.38-2.25-4.73-4.49-7.15-6.78,2.16-1.13,4.2-2.19,6.4-3.34-1.86-2.34-3.65-4.59-5.44-6.85l-.23.11c.46,1.84.92,3.67,1.41,5.64-1.6,0-3.12.05-4.63-.03-.37-.02-.78-.4-1.07-.7-2.18-2.26-4.78-3.8-7.79-4.67-.5-.14-.97-.36-1.37.34-2.17,3.82-5.74,5.7-9.77,6.91-.35.1-.71.21-1.26.37.99,3.5,1.97,6.97,2.98,10.56H0v-14.32s.06-.12.13-.14c3.89-1.24,5.13-4.22,5.27-7.96.11-2.78.7-5.42,2.75-7.68-.67-.44-1.28-.83-1.88-1.26-3.83-2.73-4.46-8.02-1.32-11.52,1.65-1.84,3.78-3.23,5.64-4.88.79-.7,1.57-1.48,2.15-2.35.59-.9.4-1.82-.67-2.49Z"/>
        <path class="cls-1" d="M16.19,69.31c2.46-1.74,3.02-4.1,2.62-6.98,3.4.93,5.81,2.9,7.73,5.67-.59.67-1.15,1.3-1.79,2.04,2.8,2.68,5.55,5.33,8.56,8.21-2.36,0-4.45-.19-6.49.05-2.53.29-4.18-.57-5.59-2.67-1.47-2.2-3.3-4.17-5.04-6.32Z"/>
        <path class="cls-1" d="M36.57,12.45c-1.91-2.47-3.8-4.91-5.84-7.55,4.33.52,8.26,1.32,11.68,4.16-2.01,1.16-3.89,2.26-5.84,3.39Z"/>
      </g>
      <g>
        <path d="M137.81,62.19c0,4.98-1.45,8.72-4.34,11.23-2.89,2.51-6.87,3.77-11.94,3.77h-35.94V27.64h32.76c2.28,0,4.38.28,6.31.85,1.92.56,3.63,1.4,5.13,2.51,1.5,1.11,2.67,2.57,3.51,4.41.84,1.83,1.26,3.92,1.26,6.27,0,4.05-1.44,7.12-4.32,9.19,2.3,1.08,4.14,2.62,5.51,4.61,1.37,1.99,2.06,4.23,2.06,6.72ZM125.58,41.6c0-2.17-.72-3.73-2.16-4.7-1.44-.97-3.31-1.45-5.62-1.45h-23.01v12.65h24.12c1.94,0,3.53-.6,4.79-1.8,1.26-1.2,1.88-2.76,1.88-4.7ZM128.62,62.19c0-2.07-.74-3.64-2.23-4.7s-3.31-1.59-5.48-1.59h-26.12v13.51h25.33c5.67,0,8.5-2.41,8.5-7.22Z"/>
        <path d="M169.81,38.83l-2.07,7.77c-1.15-.46-2.44-.69-3.87-.69-3.5,0-6.36,1.12-8.57,3.35s-3.32,5.1-3.32,8.6v19.32h-9.23v-38.36h9.23v4.53c3.23-3.59,7.37-5.39,12.44-5.39,1.59,0,3.39.29,5.39.86Z"/>
        <path d="M214.18,77.19h-9.23v-3.25c-3.41,2.74-8.17,4.11-14.27,4.11-1.43,0-2.7-.02-3.82-.07-1.12-.05-2.4-.17-3.84-.36-1.44-.2-2.7-.46-3.77-.79-1.07-.33-2.16-.81-3.27-1.42-1.11-.61-2.02-1.33-2.73-2.16-.71-.83-1.3-1.87-1.75-3.11-.45-1.24-.67-2.65-.67-4.22,0-2.65.71-4.85,2.12-6.6,1.42-1.75,3.31-3.01,5.68-3.77,2.37-.76,5.19-1.14,8.47-1.14h17.83v-1.21c0-1.15-.25-2.17-.76-3.06s-1.15-1.59-1.94-2.11c-.78-.52-1.71-.94-2.76-1.28-1.06-.33-2.07-.56-3.04-.67-.97-.11-1.97-.17-3.01-.17s-1.98.02-2.76.07c-.78.05-1.71.18-2.76.4-1.06.22-1.98.52-2.75.92-.77.39-1.54.96-2.3,1.69-.76.74-1.37,1.62-1.83,2.66l-8.57-2.21c.62-1.77,1.46-3.33,2.52-4.67s2.23-2.42,3.51-3.25c1.28-.83,2.75-1.5,4.41-2.02,1.66-.52,3.32-.88,4.99-1.07,1.67-.2,3.52-.29,5.55-.29s4.04.14,5.91.42c1.87.28,3.72.77,5.56,1.49,1.84.71,3.43,1.62,4.77,2.71,1.34,1.09,2.42,2.52,3.25,4.28.83,1.76,1.24,3.77,1.24,6.03v24.12ZM204.95,63.09v-2.59h-16.97c-.92,0-1.79.07-2.61.22-.82.15-1.63.4-2.44.76-.81.36-1.45.9-1.94,1.62s-.73,1.6-.73,2.61c0,.92.25,1.71.76,2.35.51.64,1.19,1.11,2.04,1.4.85.29,1.67.49,2.45.6.78.12,1.6.17,2.45.17h4.53c1.2,0,2.45-.12,3.77-.36,1.31-.24,2.65-.62,4.01-1.12,1.36-.51,2.48-1.25,3.35-2.25.88-.99,1.31-2.13,1.31-3.42Z"/>
        <path d="M261.83,77.19h-41.33v-6.36l26.47-24.22h-25.71v-7.77h38.94v6.36l-26.33,24.22h27.96v7.77Z"/>
        <path d="M309.34,60.91h-36.14c.16,1.64.66,3.08,1.49,4.32.83,1.24,1.89,2.22,3.18,2.92,1.29.7,2.67,1.23,4.13,1.57,1.46.35,3.01.52,4.65.52,1.54,0,2.89-.06,4.04-.19,1.15-.13,2.39-.38,3.71-.76,1.32-.38,2.48-1,3.46-1.85.98-.85,1.74-1.92,2.3-3.21l8.78,2.07c-.69,1.84-1.63,3.46-2.82,4.85-1.19,1.39-2.47,2.51-3.85,3.35-1.38.84-2.97,1.52-4.77,2.04-1.8.52-3.55.87-5.25,1.05-1.71.18-3.57.28-5.6.28-3.43,0-6.54-.4-9.33-1.19-2.79-.79-5.21-1.98-7.27-3.56-2.06-1.58-3.66-3.63-4.79-6.15-1.13-2.52-1.69-5.42-1.69-8.69,0-2.58.4-4.97,1.21-7.17.81-2.2,1.92-4.08,3.35-5.65,1.43-1.57,3.11-2.91,5.04-4.03,1.94-1.12,4.03-1.95,6.29-2.49s4.63-.81,7.12-.81c3.18,0,6.13.43,8.85,1.28,2.72.85,5.12,2.1,7.21,3.73,2.08,1.64,3.73,3.75,4.92,6.34,1.2,2.59,1.8,5.52,1.8,8.79v2.63ZM299.28,54.18c-.44-1.89-1.35-3.47-2.73-4.75-1.38-1.28-2.93-2.18-4.65-2.71-1.72-.53-3.54-.79-5.48-.79s-3.76.27-5.48.79c-1.72.53-3.29,1.43-4.72,2.71-1.43,1.28-2.37,2.86-2.83,4.75h25.88Z"/>
        <path d="M358.3,77.19h-9.19v-20.73c0-3.78-1-6.48-2.99-8.1s-4.82-2.44-8.48-2.44c-4.05,0-7.37,1.1-9.94,3.3s-3.85,5.2-3.85,9v18.97h-9.23v-38.36h9.23v4.8c3.73-3.66,8.68-5.49,14.86-5.49,3.09,0,5.8.33,8.14.98,2.34.66,4.38,1.69,6.12,3.09,1.74,1.41,3.06,3.29,3.97,5.67.91,2.37,1.37,5.21,1.37,8.5v20.8Z"/>
        <path d="M417.95,62.19c0,4.98-1.45,8.72-4.34,11.23-2.89,2.51-6.87,3.77-11.94,3.77h-35.94V27.64h32.76c2.28,0,4.38.28,6.31.85,1.92.56,3.63,1.4,5.13,2.51,1.5,1.11,2.67,2.57,3.51,4.41s1.26,3.92,1.26,6.27c0,4.05-1.44,7.12-4.32,9.19,2.3,1.08,4.14,2.62,5.51,4.61,1.37,1.99,2.06,4.23,2.06,6.72ZM405.71,41.6c0-2.17-.72-3.73-2.16-4.7s-3.31-1.45-5.62-1.45h-23.01v12.65h24.12c1.94,0,3.53-.6,4.79-1.8,1.26-1.2,1.88-2.76,1.88-4.7ZM408.75,62.19c0-2.07-.74-3.64-2.23-4.7-1.49-1.06-3.31-1.59-5.48-1.59h-26.12v13.51h25.33c5.67,0,8.5-2.41,8.5-7.22Z"/>
        <path d="M466.56,77.19h-9.19v-4.6c-3.52,3.52-8.48,5.29-14.86,5.29-3.02,0-5.67-.29-7.96-.86s-4.34-1.52-6.13-2.83c-1.8-1.31-3.17-3.13-4.11-5.44-.95-2.32-1.42-5.11-1.42-8.38v-21.53h9.23v21.22c0,1.64.18,3.05.55,4.25.37,1.2.86,2.17,1.49,2.9s1.43,1.33,2.42,1.76,2.03.74,3.13.9c1.09.16,2.38.24,3.85.24,4.05,0,7.37-1.1,9.95-3.3,2.58-2.2,3.87-5.2,3.87-9v-18.97h9.19v38.36Z"/>
        <path d="M483.53,77.19h-9.19V25.53h9.19v51.66Z"/>
        <path d="M501.22,77.19h-9.19V25.53h9.19v51.66Z"/>
        <path class="cls-1" d="M555.99,35.45h-37.08v12.65h32.62v7.81h-32.62v21.29h-9.19V27.64h46.27v7.81Z"/>
        <path class="cls-1" d="M617.12,77.19h-12.3l-16.86-18.97-16.83,18.97h-12.34l23.08-25.26-21.94-24.29h12.34l15.69,18.14,15.72-18.14h12.3l-21.94,24.29,23.08,25.26Z"/>
      </g>
    </g>
  </g>
</svg>